<svg id="b1c5a87d-d6d2-46ed-a665-d2c2003f6bf8" data-name="1" xmlns="http://www.w3.org/2000/svg" width="44.59mm" height="41.35mm" viewBox="0 0 126.39 117.21"><title>1</title><path d="M462.07,261.1a31.48,31.48,0,0,1-29.54-42.31l7.63,3.23a23.23,23.23,0,1,0,21.91-15.57,23.42,23.42,0,0,0-4.61.47l-.39.08-1.74.41,2.6,6.13-15.27-1.89-6.35-.78,9.32-12.34,3.81-5.06,2.66,6.3,1.28-.36a31.48,31.48,0,0,1,37.68,42.48,31.42,31.42,0,0,1-29,19.21Z" transform="translate(-367.15 -143.89)" fill="#16c7db"/><path d="M428,244.23c-.4-.95-.75-1.91-1.07-2.88H403.73l3.85-1.25a9.24,9.24,0,0,0,6.07-8.66v-1.05H425c0-.25,0-.5,0-.75a37.58,37.58,0,0,1,.24-4.25H411.15a2.5,2.5,0,0,0-2.5,2.5v3.55a4.2,4.2,0,0,1-2.69,3.93l-7,2.29a3.21,3.21,0,0,0-2.23,3.06v2.4a3.23,3.23,0,0,0,3.23,3.23h29C428.61,245.65,428.28,245,428,244.23Z" transform="translate(-367.15 -143.89)" fill="#193a4d"/><path d="M427.32,216.72a6,6,0,0,1,3.83-3.65,6,6,0,0,1,.31-5.07h-56.2V152h102v43.2a37,37,0,0,1,8.11,4.76V152a8.11,8.11,0,0,0-8.11-8.11h-102a8.11,8.11,0,0,0-8.11,8.11v61.68a8.11,8.11,0,0,0,8.11,8.11h50.6A37.58,37.58,0,0,1,427.32,216.72Z" transform="translate(-367.15 -143.89)" fill="#193a4d"/></svg>