<svg id="bafba198-5a9f-4334-8ce5-db098fda6c83" data-name="1" xmlns="http://www.w3.org/2000/svg" width="44.59mm" height="41.29mm" viewBox="0 0 126.39 117.03"><title>2</title><path d="M418,162.43v0h47.89l-5.29-16.27a3.32,3.32,0,0,0-4.19-2.14L418,156.53v5.9Z" transform="translate(-367.15 -143.89)" fill="#193a4d"/><path d="M478.42,185.56a15.12,15.12,0,1,0,15.11,15.12A15.12,15.12,0,0,0,478.42,185.56Z" transform="translate(-367.15 -143.89)" fill="#16c7db"/><path d="M443.8,224.52l20.84-11.35a18.7,18.7,0,0,1-4-6.89l-20.28,12.26a13.32,13.32,0,1,0,3.42,6Z" transform="translate(-367.15 -143.89)" fill="#16c7db"/><path d="M470.53,238.58a11.14,11.14,0,0,0-8.11,3.5L446.91,233a16.66,16.66,0,0,1-3.07,5.51l15.89,8.39a11,11,0,0,0-.37,2.83,11.17,11.17,0,1,0,11.17-11.17Z" transform="translate(-367.15 -143.89)" fill="#16c7db"/><path d="M411.45,227.84c0-.31,0-.61.05-.91H374.15V153.7h32.14v20.58H466a1,1,0,0,1,1,1v7.08a21.44,21.44,0,0,1,7-2.81v-4.27a8,8,0,0,0-8-8H413.29V151.92a5.22,5.22,0,0,0-5.22-5.22h-35.7a5.21,5.21,0,0,0-5.22,5.22v75.49a6.51,6.51,0,0,0,6.52,6.52h38.76A19.47,19.47,0,0,1,411.45,227.84Z" transform="translate(-367.15 -143.89)" fill="#193a4d"/></svg>