<svg id="b9e33949-3880-40c1-a570-ae81418c8f50" data-name="5" xmlns="http://www.w3.org/2000/svg" width="52.35mm" height="41.21mm" viewBox="0 0 148.39 116.81"><title>disk</title><path d="M209.45,545.91V623.4a5,5,0,0,1-5,5H117.71a3.81,3.81,0,0,1-.59,0,5,5,0,0,1-4.33-4.33,4.07,4.07,0,0,1-.05-.61V538.86a5,5,0,0,1,5-5H127v21.94c0,.16,0,.34,0,.51a0,0,0,0,1,0,0,4.59,4.59,0,0,0,4.55,4h59a4.61,4.61,0,0,0,4.57-4.11v0a3.7,3.7,0,0,0,0-.46V533.89h2.25Z" transform="translate(-112.74 -533.89)" fill="#393a3a"/><path d="M195.61,533.89v21.94a4.6,4.6,0,0,1-4.24,4.57,3.93,3.93,0,0,1-.48,0H131.27a4.65,4.65,0,0,1-3.83-2,4.48,4.48,0,0,1-.8-2.56V533.89Z" transform="translate(-112.74 -533.89)" fill="#313232"/><path d="M195.53,554.54v1.29a4.61,4.61,0,0,1-4.63,4.58H131.28a4.6,4.6,0,0,1-4.63-4.58v-1.29a4.61,4.61,0,0,0,4.63,4.59H190.9A4.61,4.61,0,0,0,195.53,554.54Z" transform="translate(-112.74 -533.89)" fill="#feffff" opacity="0.1"/><path d="M192.37,533.89v21.94a4.56,4.56,0,0,1-1.41,3.3,4.51,4.51,0,0,1-3.18,1.29H155.47a4.48,4.48,0,0,1-3.17-1.29,4.56,4.56,0,0,1-1.41-3.3V533.89Z" transform="translate(-112.74 -533.89)" fill="#959495"/><path d="M194.85,571.53v56.85H126.64V571.53a2.92,2.92,0,0,1,2.91-2.91h62.39A2.92,2.92,0,0,1,194.85,571.53Z" transform="translate(-112.74 -533.89)" fill="#f4f5fa"/><rect x="21.78" y="44.7" width="26.22" height="4.04" fill="#919192"/><rect x="21.78" y="56.03" width="52.3" height="4.04" fill="#919192"/><rect x="21.78" y="67.35" width="52.3" height="4.04" fill="#919192"/><rect x="21.78" y="78.68" width="52.3" height="4.04" fill="#919192"/><rect x="13.9" y="90.44" width="68.13" height="4.04" fill="#99d4d9"/><rect x="3.6" y="79.96" width="5.51" height="5.51" fill="#313232"/><rect x="86.43" y="79.96" width="5.51" height="5.51" fill="#313232"/><rect x="67.98" y="34.73" width="4.16" height="5.44" fill="#cb7296"/><rect x="72.14" y="34.73" width="4.16" height="5.44" fill="#57bfc3"/><path d="M161.1,533.89v94.5H117.71a3.81,3.81,0,0,1-.59,0,5,5,0,0,1-4.33-4.33,4.07,4.07,0,0,1-.05-.61V538.86a5,5,0,0,1,5-5Z" transform="translate(-112.74 -533.89)" fill="#fff" opacity="0.1"/><path d="M180.89,536.54H177V556h3.94a3,3,0,0,0,3-3v-13.4A3,3,0,0,0,180.89,536.54Z" transform="translate(-112.74 -533.89)" fill="#313232"/><polygon points="73.19 67.16 73.19 100.02 102.9 116.81 102.9 50.37 73.19 67.16" fill="#d2aa4a"/><polygon points="132.62 67.16 122.41 72.93 102.9 83.95 73.18 67.16 102.9 50.37 132.62 67.16" fill="#fff" opacity="0.15"/><polygon points="132.62 67.16 132.62 100.02 122.44 105.78 113.03 111.09 102.9 116.81 102.9 50.37 132.62 67.16" fill="#c19840"/><polygon points="132.62 67.16 122.41 72.93 102.9 83.95 73.18 67.16 102.9 50.37 132.62 67.16" fill="#fff" opacity="0.3"/><polygon points="102.91 50.37 92.69 56.15 73.19 67.16 59.17 54.81 88.89 38.02 102.91 50.37" fill="#d2aa4a"/><polygon points="102.88 50.4 113.1 56.18 132.6 67.19 146.62 54.84 116.9 38.06 102.88 50.4" fill="#d2aa4a"/><polygon points="132.62 67.28 103.05 83.98 118.9 99.78 132.62 92.03 132.62 67.28" fill="#0e1632" opacity="0.1"/><polygon points="73.33 67.19 73.18 67.34 73.18 91.87 87.2 99.78 103.05 83.98 73.33 67.19" fill="#0e1632" opacity="0.1"/><line x1="59.17" y1="54.81" x2="88.89" y2="38.03" fill="#d2aa4a"/><polygon points="57.48 77.98 87.2 94.77 103.05 83.98 73.33 67.19 57.48 77.98" fill="#d2aa4a"/><polygon points="148.39 77.98 118.67 94.77 102.81 83.98 132.53 67.19 148.39 77.98" fill="#d2aa4a"/><polygon points="132.62 67.25 132.62 67.17 146.62 54.84 128.41 44.56 73.19 99.79 73.19 100.02 102.9 116.81 102.9 116.81 113.03 111.09 122.44 105.78 132.62 100.02 132.62 92.03 132.62 86.88 148.39 77.98 132.62 67.25" fill="#0e1632" opacity="0.03"/></svg>