<svg id="b212d27a-74c3-46ed-bc3b-107ac60ae68c" data-name="5" xmlns="http://www.w3.org/2000/svg" width="52.35mm" height="41.21mm" viewBox="0 0 148.39 116.81"><title>function</title><path d="M215.38,592a52.21,52.21,0,0,0,0-13.06c-6.49-1-11.68-2.16-12.16-3.92s3.41-5.46,8.53-9.6a51.9,51.9,0,0,0-6.43-11.1c-6.12,2.37-11.22,4-12.55,2.66s.28-6.43,2.65-12.54a51.09,51.09,0,0,0-11.1-6.45c-4.14,5.11-7.78,9-9.6,8.53s-2.92-5.67-3.92-12.16a52.13,52.13,0,0,0-13.05,0c-1,6.49-2.17,11.7-3.92,12.16s-5.46-3.42-9.59-8.53a50.75,50.75,0,0,0-11.11,6.45c2.35,6.11,4,11.22,2.64,12.54s-6.42-.29-12.54-2.66a51.08,51.08,0,0,0-6.43,11.1c5.1,4.14,9,7.79,8.53,9.6s-5.67,2.91-12.16,3.92a49.8,49.8,0,0,0,0,13.06c6.49,1,11.68,2.16,12.16,3.91s-3.44,5.47-8.55,9.61a51.81,51.81,0,0,0,6.45,11.1c6.12-2.37,11.22-4,12.54-2.66s-.29,6.43-2.64,12.56a50.18,50.18,0,0,0,11.1,6.42c4.14-5.1,7.78-9,9.6-8.52s2.92,5.67,3.92,12.16a50.9,50.9,0,0,0,13.05,0c1-6.49,2.17-11.7,3.92-12.16s5.46,3.42,9.6,8.52a50.18,50.18,0,0,0,11.1-6.42c-2.37-6.13-4-11.25-2.65-12.56s6.43.29,12.55,2.66a50.91,50.91,0,0,0,6.43-11.1c-5.1-4.14-9-7.79-8.53-9.61S208.89,593,215.38,592Zm-34.5-4.41a16.33,16.33,0,0,1-1.17,4.39,16.52,16.52,0,0,1-2.1,3.62,17.42,17.42,0,0,1-3.2,3.22,17.1,17.1,0,0,1-3.62,2.08A16.19,16.19,0,0,1,166.4,602a17.43,17.43,0,0,1-4.25,0,16.1,16.1,0,0,1-4.39-1.19,16.78,16.78,0,0,1-3.61-2.08,17.58,17.58,0,0,1-3.23-3.22,16.85,16.85,0,0,1-2.08-3.62,16,16,0,0,1-1.18-4.39,17.35,17.35,0,0,1,0-4.24,16.08,16.08,0,0,1,1.18-4.39,16.73,16.73,0,0,1,5.31-6.83,17.74,17.74,0,0,1,3.61-2.1,16.06,16.06,0,0,1,4.39-1.16,15.13,15.13,0,0,1,4.25,0,16.91,16.91,0,0,1,4.39,1.16,18.09,18.09,0,0,1,3.62,2.1,16.88,16.88,0,0,1,3.2,3.23,16.55,16.55,0,0,1,2.1,3.6,16.82,16.82,0,0,1,1.17,4.39,16.12,16.12,0,0,1,0,4.24Z" transform="translate(-112.74 -533.89)" fill="#a8d8d1"/><path d="M164.26,565.07a20.36,20.36,0,1,0,20.37,20.36A20.35,20.35,0,0,0,164.26,565.07Zm13.45,22.08a12.75,12.75,0,0,1-1,3.55,13.18,13.18,0,0,1-1.7,2.93,14.22,14.22,0,0,1-2.59,2.61,13.92,13.92,0,0,1-2.93,1.68,12.85,12.85,0,0,1-3.55,1,12.37,12.37,0,0,1-1.73.1,12.17,12.17,0,0,1-1.71-.1,12.92,12.92,0,0,1-3.56-1,13.85,13.85,0,0,1-2.92-1.68,14,14,0,0,1-2.61-2.61,13.66,13.66,0,0,1-2.65-6.48,14.84,14.84,0,0,1,0-3.44,13.46,13.46,0,0,1,2.65-6.47,13.44,13.44,0,0,1,2.61-2.61,13.93,13.93,0,0,1,2.92-1.7,13.25,13.25,0,0,1,3.56-.94,12.18,12.18,0,0,1,1.71-.12A12.36,12.36,0,0,1,166,572a13.56,13.56,0,0,1,3.55.94,14,14,0,0,1,2.93,1.7,13.62,13.62,0,0,1,2.59,2.61,13.44,13.44,0,0,1,1.7,2.91,13.76,13.76,0,0,1,1,3.56,13.5,13.5,0,0,1,0,3.44Z" transform="translate(-112.74 -533.89)" fill="#c7e6e3"/><path d="M148.84,578.9a16.89,16.89,0,0,1,2.08-3.6,17,17,0,0,1,6.84-5.32,16.07,16.07,0,0,1,4.39-1.17,15,15,0,0,1,2.12-.14V533.89a51.87,51.87,0,0,0-6.52.42c-1,6.49-2.17,11.7-3.92,12.15s-5.46-3.42-9.59-8.52a50.32,50.32,0,0,0-11.11,6.44c2.35,6.11,4,11.23,2.64,12.54s-6.42-.29-12.54-2.66a51.15,51.15,0,0,0-6.43,11.11c5.1,4.13,9,7.78,8.53,9.6s-5.67,2.9-12.16,3.91a49.8,49.8,0,0,0,0,13.06c6.49,1,11.68,2.16,12.16,3.92s-3.44,5.46-8.55,9.6a51.56,51.56,0,0,0,6.45,11.1c6.12-2.37,11.22-4,12.54-2.65s-.29,6.42-2.64,12.55a50.61,50.61,0,0,0,11.1,6.43c4.14-5.1,7.78-9,9.6-8.53s2.92,5.67,3.92,12.16a50.05,50.05,0,0,0,6.52.42V602.16a15,15,0,0,1-2.12-.13,16.45,16.45,0,0,1-4.39-1.18,16.9,16.9,0,0,1-6.84-5.31,16.78,16.78,0,0,1-2.08-3.61,16.18,16.18,0,0,1-1.18-4.39,17.43,17.43,0,0,1,0-4.25A16.18,16.18,0,0,1,148.84,578.9Z" transform="translate(-112.74 -533.89)" fill="#c7e6e3"/><path d="M164.26,560.28a25.15,25.15,0,1,0,25.15,25.16A25.15,25.15,0,0,0,164.26,560.28Zm16.61,27.27a16.5,16.5,0,0,1-3.27,8,17.12,17.12,0,0,1-3.2,3.22,16.85,16.85,0,0,1-3.62,2.08,16.19,16.19,0,0,1-4.39,1.19,18.88,18.88,0,0,1-4.25,0,16.19,16.19,0,0,1-4.39-1.19,16.78,16.78,0,0,1-3.61-2.08,17.23,17.23,0,0,1-3.22-3.22,16.76,16.76,0,0,1-3.27-8,14.76,14.76,0,0,1-.13-2.11,15.09,15.09,0,0,1,.13-2.14,16.65,16.65,0,0,1,1.18-4.39,16.85,16.85,0,0,1,5.31-6.82,17.29,17.29,0,0,1,3.61-2.1,16.69,16.69,0,0,1,8.64-1.17,16.92,16.92,0,0,1,4.39,1.17,17.36,17.36,0,0,1,3.62,2.1,16.83,16.83,0,0,1,3.2,3.22,16.32,16.32,0,0,1,3.27,8,15.09,15.09,0,0,1,.14,2.14A14.76,14.76,0,0,1,180.87,587.55Z" transform="translate(-112.74 -533.89)" fill="#fff"/><path d="M233.59,650.7h-8.17c-.66,0-4.77-1.2-4.77-1.2l-2.37-5.31a0,0,0,0,1,0,0h22.43a0,0,0,0,1,0,0l-2.37,5.31S234.25,650.7,233.59,650.7Z" transform="translate(-112.74 -533.89)" fill="#e9e8db"/><path d="M261.13,585.93a31.56,31.56,0,0,1-9.27,22.36c-5.71,5.72-7.41,7.78-7.41,12.81H214.56c0-5-1.7-7.09-7.42-12.81a31.59,31.59,0,0,1-9.26-22.36,30.93,30.93,0,0,1,1.55-9.76,31.55,31.55,0,0,1,20.31-20.31,30.93,30.93,0,0,1,9.76-1.55A31.39,31.39,0,0,1,247,559.58a30.69,30.69,0,0,1,4.88,4,31.86,31.86,0,0,1,4,4.89A31.44,31.44,0,0,1,261.13,585.93Z" transform="translate(-112.74 -533.89)" fill="#ead66c"/><polygon points="131.92 87.21 131.75 89.54 131.37 94.96 131.27 96.35 130.88 101.78 130.78 103.17 130.39 108.59 130.13 112.32 103.39 112.32 103.23 110.01 103.13 108.59 102.75 103.17 102.73 103.17 102.65 101.78 102.25 96.35 102.15 94.96 101.77 89.54 101.61 87.21 131.92 87.21" fill="#e67a85"/><path d="M226.78,617.31a1,1,0,0,1-1-.56l-8.57-18.13a1,1,0,1,1,1.78-.85l8.58,18.14a1,1,0,0,1-.48,1.31A.8.8,0,0,1,226.78,617.31Z" transform="translate(-112.74 -533.89)" fill="#010100" opacity="0.12"/><path d="M232.22,617.31a1,1,0,0,0,1-.56l8.57-18.13a1,1,0,0,0-.47-1.32,1,1,0,0,0-1.32.47l-8.57,18.14a1,1,0,0,0,.47,1.31A.86.86,0,0,0,232.22,617.31Z" transform="translate(-112.74 -533.89)" fill="#010100" opacity="0.12"/><path d="M229.5,554.31v96.4h-4.09a17,17,0,0,1-2.21-.49c-.26-.07-.52-.13-.77-.21l-.49-.14-1.29-.37-.73-1.65h0l-.71-1.62h-3.06L216,643.9l-.1-1.42h-1.52a.49.49,0,0,1-.49-.47v-4.48a.49.49,0,0,1,.49-.47h1.14l-.1-1.39h-1.69a.25.25,0,0,1-.25-.24V630.5a.26.26,0,0,1,.25-.26H215l-.1-1.39h-1.14a.42.42,0,0,1-.43-.42v-4.56a.44.44,0,0,1,.43-.44h.76l-.16-2.33h.21c0-5-1.7-7.09-7.42-12.81a31.59,31.59,0,0,1-9.26-22.36,30.93,30.93,0,0,1,1.55-9.76,31.55,31.55,0,0,1,20.31-20.31A30.93,30.93,0,0,1,229.5,554.31Z" transform="translate(-112.74 -533.89)" fill="#fff" opacity="0.12"/><path d="M245.69,623.87v4.56a.43.43,0,0,1-.44.42h-31.5a.42.42,0,0,1-.43-.42v-4.56a.44.44,0,0,1,.43-.44h31.5A.44.44,0,0,1,245.69,623.87Z" transform="translate(-112.74 -533.89)" fill="#fdf9d8"/><path d="M245.56,630.5v4.93a.24.24,0,0,1-.24.24H213.69a.25.25,0,0,1-.25-.24V630.5a.26.26,0,0,1,.25-.26h31.63A.25.25,0,0,1,245.56,630.5Z" transform="translate(-112.74 -533.89)" fill="#fdf9d8"/><path d="M245.15,637.53V642a.48.48,0,0,1-.48.47H214.34a.49.49,0,0,1-.49-.47v-4.48a.49.49,0,0,1,.49-.47h30.33A.48.48,0,0,1,245.15,637.53Z" transform="translate(-112.74 -533.89)" fill="#fdf9d8"/><path d="M224.69,623.43v5.42H213.75a.42.42,0,0,1-.43-.42v-4.56a.44.44,0,0,1,.43-.44Z" transform="translate(-112.74 -533.89)" fill="#fff" opacity="0.68"/><path d="M224.69,630.24v5.43h-11a.25.25,0,0,1-.25-.24V630.5a.26.26,0,0,1,.25-.26Z" transform="translate(-112.74 -533.89)" fill="#fff" opacity="0.68"/><path d="M224.69,637.06v5.42H214.34a.49.49,0,0,1-.49-.47v-4.48a.49.49,0,0,1,.49-.47Z" transform="translate(-112.74 -533.89)" fill="#fff" opacity="0.68"/><path d="M243.82,621.12l-.89-.72c0-5.18,1.82-7.28,7.74-13.12a32.51,32.51,0,0,0,7.89-34,31.63,31.63,0,0,1-6.7,34.86c-5.71,5.72-7.41,7.77-7.41,12.81Z" transform="translate(-112.74 -533.89)" fill="#271532" opacity="0.06"/><ellipse cx="213.44" cy="571.49" rx="8.79" ry="7.91" transform="translate(-460.08 -202.58) rotate(-46.33)" fill="#fff" opacity="0.3"/></svg>