<svg id="a827db4e-f46b-4ff7-9d13-df8bea48864c" data-name="5" xmlns="http://www.w3.org/2000/svg" width="52.35mm" height="41.11mm" viewBox="0 0 148.39 116.53"><title>like</title><path d="M175.44,539.94A5.76,5.76,0,0,1,165,543.27a5,5,0,0,1-.42-.7,5.72,5.72,0,0,1,0-5.26,5.76,5.76,0,0,1,10.89,2.63Z" transform="translate(-112.74 -534.18)" fill="#dbd3d4"/><path d="M170.52,537.9a2.16,2.16,0,1,1-2.15-2.15A2.16,2.16,0,0,1,170.52,537.9Z" transform="translate(-112.74 -534.18)" fill="#fff"/><path d="M205.82,574v13.27h-83V574a26.28,26.28,0,0,1,1.52-8.81,31.84,31.84,0,0,1,11.18-14.66,31.08,31.08,0,0,1,7.65-4.17,47.38,47.38,0,0,1,11.89-2.68,88.09,88.09,0,0,1,9.1-.44H165a78.77,78.77,0,0,1,9,.49c7.46.82,13.23,2.76,17.93,5.94.41.28.8.56,1.19.85a34.78,34.78,0,0,1,8,8.3A26.92,26.92,0,0,1,205.82,574Z" transform="translate(-112.74 -534.18)" fill="#dbd3d4"/><path d="M164.31,543.26v44h-41.5V574a26.28,26.28,0,0,1,1.52-8.81,31.84,31.84,0,0,1,11.18-14.66,31.08,31.08,0,0,1,7.65-4.17,47.38,47.38,0,0,1,11.89-2.68,88.09,88.09,0,0,1,9.1-.44Z" transform="translate(-112.74 -534.18)" fill="#e8e5e5"/><path d="M215.89,604.77c0,10.36-5.8,17.52-15.6,23.43-9.08,5.47-21.92,4.54-36,4.54-13.49,0-25.89.86-34.88-3.94q-.56-.28-1.08-.6c-6.64-4-11.46-8.58-13.87-14.35a23.36,23.36,0,0,1-1.74-9.08c0-3.23,1.24-10.25,4.39-14a19.21,19.21,0,0,1,5.68-6c4.14-2.9,7.86-3.79,7.86-9.86,0-6.87,3.76-13.08,9.84-17.58s14.51-5.7,23.8-5.7,17.72,1.2,23.8,5.7S198,568.06,198,574.93c0,6.05,3.7,7,7.84,9.86a19.21,19.21,0,0,1,5.68,6C214.65,594.52,215.89,601.54,215.89,604.77Z" transform="translate(-112.74 -534.18)" fill="#e67386"/><path d="M165.19,539.94a5.56,5.56,0,0,1-.64,2.63,5.36,5.36,0,0,1-.4.69,5.77,5.77,0,0,1-9.1.44,5.68,5.68,0,0,1-1.39-3.76,5.76,5.76,0,0,1,10.89-2.63A5.56,5.56,0,0,1,165.19,539.94Z" transform="translate(-112.74 -534.18)" fill="#e8e5e5"/><path d="M160,537.9a2.16,2.16,0,1,1-2.16-2.15A2.16,2.16,0,0,1,160,537.9Z" transform="translate(-112.74 -534.18)" fill="#fff"/><path d="M164.32,551.65c9.29,0,17.71,1.21,23.8,5.71s9.86,10.7,9.86,17.57c0,8.87,7.93,6.66,13.52,15.86,3.15,3.74,4.39,10.75,4.39,14,0,10.37-5.8,17.53-15.6,23.43-9.09,5.47-21.93,4.53-36,4.53Z" transform="translate(-112.74 -534.18)" fill="#db6075"/><polygon points="75.61 82.89 75.61 82.89 75.59 82.89 75.59 109.3 94.29 109.3 94.29 82.89 75.67 82.89 75.61 82.89" fill="#f9e8d4"/><polygon points="72.13 82.89 72.13 82.89 72.1 82.89 72.1 109.3 90.81 109.3 90.81 82.89 72.19 82.89 72.13 82.89" fill="#010100" opacity="0.07"/><polygon points="61.27 79.26 61.27 79.26 61.23 79.26 61.23 116.53 87.1 116.53 87.1 79.26 61.34 79.26 61.27 79.26" fill="#4e88a8"/><path d="M261.11,621.78a4.48,4.48,0,0,0-2.3-3.39l-2.62-1.47a1,1,0,0,1-.1-1.6l2.56-1.94a4.13,4.13,0,0,0,1.66-3.32,4,4,0,0,0-1.21-2.87,4.69,4.69,0,0,0-3.29-1.38H233.36a1.34,1.34,0,0,1-1.32-1.54l1.9-12.35a14.46,14.46,0,0,0,.18-2.39c0-5.52-3.69-12.65-7.64-12.65a2.43,2.43,0,0,0-2.42,2.62l.09,1.19a47.89,47.89,0,0,1-1.1,12.69,11,11,0,0,1-1.2,2.92s-1.75,4.64-4,9.33c-.17.34-.35.68-.53,1s-.42.79-.64,1.18q-.6,1-1.26,2c-.22.32-.43.64-.66.95-.47.67-1,1.32-1.48,2-.27.33-.54.65-.82,1-.47.53-1,1-1.46,1.56s-.87.86-1.32,1.27l-.62.57v26.3a18.14,18.14,0,0,0,10.68,4.85h28.63a4.19,4.19,0,0,0,3.39-6.14l-1.33-2.58a1,1,0,0,1,.69-1.38l2.63-.44a4.39,4.39,0,0,0,3.75-4.15,4.14,4.14,0,0,0-.85-2.58l-1.8-2.41a1,1,0,0,1,.48-1.5l2.86-.88A4.21,4.21,0,0,0,261.11,621.78Z" transform="translate(-112.74 -534.18)" fill="#f9e8d4"/><path d="M261.11,621.78a4.48,4.48,0,0,0-2.3-3.39l-2.62-1.47a1,1,0,0,1-.1-1.6l2.56-1.94a4.13,4.13,0,0,0,1.66-3.32,4,4,0,0,0-1.21-2.87,4.69,4.69,0,0,0-3.29-1.38H233.36a1.34,1.34,0,0,1-1.32-1.54l1.9-12.35a14.46,14.46,0,0,0,.18-2.39c0-5.52-3.69-12.65-7.64-12.65a2.43,2.43,0,0,0-2.42,2.62l.09,1.19a47.89,47.89,0,0,1-1.1,12.69,11,11,0,0,1-1.2,2.92s-1.75,4.64-4,9.33c-.17.34-.35.68-.53,1s-.42.79-.64,1.18q-.6,1-1.26,2c-.22.32-.43.64-.66.95-.47.67-1,1.32-1.48,2-.27.33-.54.65-.82,1-.47.53-1,1-1.46,1.56s-.87.86-1.32,1.27l-.62.57v26.3a18.14,18.14,0,0,0,10.68,4.85h28.63a4.19,4.19,0,0,0,3.39-6.14l-1.33-2.58a1,1,0,0,1,.69-1.38l2.63-.44a4.39,4.39,0,0,0,3.75-4.15,4.14,4.14,0,0,0-.85-2.58l-1.8-2.41a1,1,0,0,1,.48-1.5l2.86-.88A4.21,4.21,0,0,0,261.11,621.78Z" transform="translate(-112.74 -534.18)" fill="#010100" opacity="0.07"/><path d="M258,621.78a4.48,4.48,0,0,0-2.3-3.39l-2.62-1.47a1,1,0,0,1-.11-1.6l2.57-1.94a4.13,4.13,0,0,0,1.66-3.32,4,4,0,0,0-1.21-2.87,4.69,4.69,0,0,0-3.29-1.38H230.29a1.34,1.34,0,0,1-1.32-1.54l1.9-12.35a15.63,15.63,0,0,0,.18-2.39c0-5.52-3.69-12.65-7.64-12.65A2.44,2.44,0,0,0,221,579.5l.09,1.19A47.88,47.88,0,0,1,220,593.38a11,11,0,0,1-1.2,2.92s-1.75,4.64-4,9.33c-.16.34-.34.68-.52,1s-.42.79-.65,1.18c-.39.69-.81,1.37-1.25,2l-.66.95c-.47.67-1,1.32-1.49,2-.26.33-.54.65-.82,1-.47.53-1,1-1.45,1.56s-.87.86-1.32,1.27l-.62.57v26.3a18.12,18.12,0,0,0,10.68,4.85h28.63a4.19,4.19,0,0,0,3.39-6.14l-1.33-2.58a1,1,0,0,1,.69-1.38l2.63-.44a4.39,4.39,0,0,0,3.75-4.15,4.14,4.14,0,0,0-.85-2.58l-1.8-2.41a1,1,0,0,1,.48-1.5l2.85-.88A4.21,4.21,0,0,0,258,621.78Z" transform="translate(-112.74 -534.18)" fill="#f9e8d4"/><path d="M261.11,621.78a4.48,4.48,0,0,0-2.3-3.39l-2.62-1.47a1,1,0,0,1-.1-1.6l2.56-1.94a4.13,4.13,0,0,0,1.66-3.32,4,4,0,0,0-1.21-2.87,4.69,4.69,0,0,0-3.29-1.38H233.36a1.32,1.32,0,0,1-1.06-.54l-45.44,45.44h13v-7.23H206a18.08,18.08,0,0,0,10.62,4.8h31.7a4.19,4.19,0,0,0,3.39-6.14l-1.33-2.58a1,1,0,0,1,.69-1.38l2.63-.44a4.39,4.39,0,0,0,3.75-4.15,4.14,4.14,0,0,0-.85-2.58l-1.8-2.41a1,1,0,0,1,.48-1.5l2.86-.88A4.21,4.21,0,0,0,261.11,621.78Z" transform="translate(-112.74 -534.18)" fill="#010100" opacity="0.04"/></svg>