<svg id="b8ea2019-0531-4926-bcb7-66439cb72dc2" data-name="5" xmlns="http://www.w3.org/2000/svg" width="52.35mm" height="41.21mm" viewBox="0 0 148.39 116.81"><title>user</title><polygon points="20.84 38.65 20.84 82.25 60.26 104.52 60.26 16.38 20.84 38.65" fill="#57c1d5"/><polygon points="99.69 38.65 86.14 46.31 60.26 60.92 20.84 38.65 60.26 16.38 99.69 38.65" fill="#fff"/><polygon points="99.69 38.65 99.69 82.25 86.18 89.89 73.69 96.94 60.26 104.52 60.26 16.38 99.69 38.65" fill="#d9e3f0"/><polygon points="99.69 38.65 99.69 82.25 86.18 89.89 73.69 96.94 60.26 104.52 60.26 60.92 99.69 38.65" fill="#57c1d5"/><polygon points="60.27 16.38 46.71 24.04 20.84 38.65 2.24 22.27 41.67 0 60.27 16.38" fill="#57c1d5"/><polygon points="60.23 16.42 73.79 24.08 99.66 38.7 118.26 22.31 78.83 0.04 60.23 16.42" fill="#57c1d5"/><polygon points="99.69 38.8 60.46 60.97 81.49 81.93 99.69 71.65 99.69 38.8" fill="#0e1632" opacity="0.1"/><polygon points="21.03 38.7 20.84 38.89 20.84 71.43 39.43 81.93 60.46 60.97 21.03 38.7" fill="#0e1632" opacity="0.1"/><line x1="2.24" y1="22.27" x2="41.67" fill="#d2aa4a"/><polygon points="0 53.01 39.43 75.28 60.46 60.97 21.03 38.7 0 53.01" fill="#57c1d5"/><polygon points="120.6 53.01 81.18 75.28 60.15 60.97 99.57 38.7 120.6 53.01" fill="#57c1d5"/><polygon points="20.84 38.65 20.84 82.25 60.26 104.52 60.26 16.38 20.84 38.65" fill="#57c1d5"/><polygon points="99.69 38.65 86.14 46.31 60.26 60.92 20.84 38.65 60.26 16.38 99.69 38.65" fill="#fff"/><polygon points="99.69 38.65 99.69 82.25 86.18 89.89 73.69 96.94 60.26 104.52 60.26 16.38 99.69 38.65" fill="#d9e3f0"/><polygon points="99.69 38.65 99.69 82.25 86.18 89.89 73.69 96.94 60.26 104.52 60.26 60.92 99.69 38.65" fill="#57c1d5"/><polygon points="60.27 16.38 46.71 24.04 20.84 38.65 2.24 22.27 41.67 0 60.27 16.38" fill="#57c1d5"/><polygon points="60.23 16.42 73.79 24.08 99.66 38.7 118.26 22.31 78.83 0.04 60.23 16.42" fill="#57c1d5"/><polygon points="99.69 38.8 60.46 60.97 81.49 81.93 99.69 71.65 99.69 38.8" fill="#0e1632" opacity="0.1"/><polygon points="21.03 38.7 20.84 38.89 20.84 71.43 39.43 81.93 60.46 60.97 21.03 38.7" fill="#0e1632" opacity="0.1"/><line x1="2.24" y1="22.27" x2="41.67" fill="#d2aa4a"/><polygon points="0 53.01 39.43 75.28 60.46 60.97 21.03 38.7 0 53.01" fill="#57c1d5"/><polygon points="120.6 53.01 81.18 75.28 60.15 60.97 99.57 38.7 120.6 53.01" fill="#57c1d5"/><polygon points="99.69 38.77 99.69 38.67 118.26 22.31 94.11 8.67 20.84 81.94 20.84 82.25 60.26 104.52 60.26 104.52 73.69 96.94 86.18 89.89 99.69 82.25 99.69 71.65 99.69 64.82 120.6 53.01 99.69 38.77" fill="#0e1632" opacity="0.03"/><path d="M214.91,627.67H170.74s0-.7.14-1.72c.15-1.87.4-4.81.56-6.39a5.91,5.91,0,0,1,4.18-5.06c1.16-.41,4.18-1.52,6.91-2.54l.07,0,2.65-1,.41-.15,1.47-.55.33-.13h0a1.78,1.78,0,0,0,.24-.09l5.12.15h.31l4.8-.15a1.78,1.78,0,0,0,.24.09l.34.13,1.6.6.28.11,3.77,1.39h0l.91.33c.45.16.89.32,1.32.49l.42.15.8.3,1.7.61.27.1.44.16a5.94,5.94,0,0,1,4.19,5.06C214.45,622,214.91,627.67,214.91,627.67Z" transform="translate(-112.74 -533.89)" fill="#727171"/><path d="M205,588v5.22c-5.81,0-8.09,2.8-10.57,5.11-.41.38-.82.74-1.27,1.09a8.46,8.46,0,0,1-5.5,1.89,4.4,4.4,0,0,0-.51-2.38c-1.14-2.34-3.93-4.58-6.46-4.6V588a8.24,8.24,0,0,1,.72-3.23,12.34,12.34,0,0,1,6.31-6.31,12.79,12.79,0,0,1,5.13-1,12.63,12.63,0,0,1,7.47,2.41l.42.33,0,0h0l.32.29a3.73,3.73,0,0,1,.3.26c.12.1.22.21.32.31s.27.27.39.41l.39.45a.09.09,0,0,1,0,0h0l0,0a10.72,10.72,0,0,1,.91,1.28c.06.09.11.18.16.27.17.3.33.6.47.9l.12.26,0,.08c.09.21.18.43.26.64s.1.31.14.48.1.36.14.54.07.36.1.53,0,.28,0,.41S205,587.83,205,588Z" transform="translate(-112.74 -533.89)" fill="#727171"/><rect x="74.39" y="64.46" width="11.39" height="15.78" fill="#727171"/><path d="M205,592.45v6.33c0,.15,0,.3,0,.45l0,.38c0,.12,0,.24-.06.36s0,.15,0,.23l-.12.52c0,.14-.09.28-.13.43l-.26.72c-.06.13-.11.25-.17.37a7.77,7.77,0,0,1-.46.91c-.08.15-.17.29-.26.43l-.21.33a11.6,11.6,0,0,1-1.18,1.48l-.27.29a4.67,4.67,0,0,1-.4.38l-.33.3a.9.9,0,0,1-.19.15l-.31.25a4.49,4.49,0,0,1-.51.38,4.81,4.81,0,0,1-.41.27.38.38,0,0,1-.11.08l-.45.26a.65.65,0,0,1-.16.09l-.38.2h0a12.63,12.63,0,0,1-5.38,1.31h-.31a12.67,12.67,0,0,1-5.7-1.32c-4.14-2.08-6.46-6.2-6.46-9.27v-5.22c7.23,0,9-4.33,12.47-6.65a8.38,8.38,0,0,1,4.87-1.44C197.69,588.37,201.57,592.42,205,592.45Z" transform="translate(-112.74 -533.89)" fill="#727171"/><path d="M214.91,627.67H193.14V577.46a12.48,12.48,0,0,1,2.65.33,12.3,12.3,0,0,1,4.51,2.07l.42.33,0,0h0l.32.29a3.73,3.73,0,0,1,.3.26c.12.1.22.21.32.31a5,5,0,0,1,.39.41l.39.45.05,0,0,0a10.72,10.72,0,0,1,.91,1.28c.06.09.11.18.16.27.17.3.33.6.47.9l.12.26,0,.08c.09.21.18.43.26.64s.1.31.14.48.1.36.14.54.07.36.1.53,0,.28,0,.41,0,.41,0,.61v10.75c0,.15,0,.3,0,.45l0,.38a9.39,9.39,0,0,1-.35,1.54l-.09.26c-.05.15-.11.31-.17.46s-.11.25-.17.37-.14.3-.21.46-.16.31-.25.45-.17.29-.26.43a3.28,3.28,0,0,1-.2.31v0c-.11.17-.23.33-.35.49s-.32.41-.49.61-.23.27-.36.4l-.25.27-.4.38-.28.25a1.5,1.5,0,0,1-.24.2l-.31.25,0,0a3.18,3.18,0,0,1-.37.27l-.09.06a4.81,4.81,0,0,1-.41.27.38.38,0,0,1-.11.08,4.76,4.76,0,0,1-.49.28.29.29,0,0,1-.12.07,1.41,1.41,0,0,1-.24.13l-.14.08v1.88l.41-.24,1.56.78-.06.27h0l3.7,1.56v.06l.45.17,4.09,1.51.32.11,1,.36a5.94,5.94,0,0,1,4.19,5.06C214.45,622,214.91,627.67,214.91,627.67Z" transform="translate(-112.74 -533.89)" fill="#3e3b3a" opacity="0.2"/><path d="M261.13,627.67H217s.06-.7.14-1.72c.16-1.87.41-4.81.56-6.39a5.94,5.94,0,0,1,4.19-5.06c1.16-.41,4.18-1.52,6.91-2.54l.07,0,2.65-1,.41-.15,1.47-.55.33-.13h0l.24-.09,5.11.15h.32l4.79-.15.25.09.34.13,1.6.6.27.11c1.09.39,2.44.9,3.78,1.39h0l.91.33c.44.16.89.32,1.32.49l.42.15.79.3,1.7.61.27.1.45.16a5.93,5.93,0,0,1,4.18,5.06C260.66,622,261.13,627.67,261.13,627.67Z" transform="translate(-112.74 -533.89)" fill="#727171"/><path d="M251.2,588v5.22c-5.82,0-8.1,2.8-10.57,5.11-.42.38-.83.74-1.27,1.09a8.46,8.46,0,0,1-5.5,1.89,4.4,4.4,0,0,0-.51-2.38c-1.14-2.34-3.94-4.58-6.47-4.6V588a8.26,8.26,0,0,1,.73-3.23,12.32,12.32,0,0,1,6.3-6.31,12.83,12.83,0,0,1,5.13-1,12.63,12.63,0,0,1,7.48,2.41l.42.33,0,0h0a3.11,3.11,0,0,1,.33.29l.3.26.32.31c.13.14.26.27.38.41l.4.45,0,0h0l0,0a12,12,0,0,1,.91,1.28l.16.27c.17.3.33.6.47.9,0,.08.07.17.11.26a.3.3,0,0,1,0,.08c.09.21.18.43.25.64s.11.31.15.48.1.36.14.54.07.36.09.53a3.05,3.05,0,0,1,0,.41A4.26,4.26,0,0,1,251.2,588Z" transform="translate(-112.74 -533.89)" fill="#727171"/><rect x="120.6" y="64.46" width="11.39" height="15.78" fill="#727171"/><path d="M251.2,592.45v6.33c0,.15,0,.3,0,.45s0,.25,0,.38,0,.24,0,.36a1.85,1.85,0,0,0,0,.23l-.12.52c0,.14-.09.28-.13.43s-.17.48-.27.72-.1.25-.16.37a9.71,9.71,0,0,1-.46.91l-.26.43-.22.33a11.51,11.51,0,0,1-1.17,1.48l-.28.29a2.86,2.86,0,0,1-.4.38c-.1.11-.21.2-.32.3l-.19.15-.31.25a5.61,5.61,0,0,1-.51.38,3.74,3.74,0,0,1-.42.27.28.28,0,0,1-.11.08,4.83,4.83,0,0,1-.45.26l-.15.09-.38.2h0a12.7,12.7,0,0,1-5.38,1.31H239a12.66,12.66,0,0,1-5.69-1.32c-4.14-2.08-6.47-6.2-6.47-9.27v-5.22c7.23,0,9-4.33,12.48-6.65a8.34,8.34,0,0,1,4.86-1.44C243.9,588.37,247.79,592.42,251.2,592.45Z" transform="translate(-112.74 -533.89)" fill="#727171"/><path d="M261.13,627.67H239.36V577.46a12.56,12.56,0,0,1,2.65.33,12.3,12.3,0,0,1,4.51,2.07l.42.33,0,0h0a3.11,3.11,0,0,1,.33.29l.3.26.32.31a4.86,4.86,0,0,1,.38.41l.4.45a.1.1,0,0,1,0,0l0,0a12,12,0,0,1,.91,1.28l.16.27c.17.3.33.6.47.9,0,.08.07.17.11.26a.3.3,0,0,1,0,.08c.09.21.18.43.25.64s.11.31.15.48.1.36.14.54.07.36.09.53a3.05,3.05,0,0,1,0,.41,4.26,4.26,0,0,1,0,.61v10.75c0,.15,0,.3,0,.45s0,.25,0,.38a9.32,9.32,0,0,1-.34,1.54l-.09.26a4.37,4.37,0,0,1-.18.46c-.05.13-.1.25-.16.37s-.14.3-.22.46-.16.31-.24.45l-.26.43a2.11,2.11,0,0,1-.21.31s0,0,0,0a5.48,5.48,0,0,1-.35.49c-.15.21-.31.41-.48.61s-.23.27-.36.4l-.26.27a4.83,4.83,0,0,1-.4.38l-.27.25a2.12,2.12,0,0,1-.24.2l-.31.25-.06,0a3.07,3.07,0,0,1-.36.27l-.09.06a3.74,3.74,0,0,1-.42.27.28.28,0,0,1-.11.08c-.16.1-.32.2-.48.28a.37.37,0,0,1-.12.07,1.19,1.19,0,0,1-.25.13l-.13.08v1.88l.41-.24,1.55.78,0,.27h0l3.7,1.56v.06l.45.17,4.08,1.51.32.11,1,.36a5.93,5.93,0,0,1,4.18,5.06C260.66,622,261.13,627.67,261.13,627.67Z" transform="translate(-112.74 -533.89)" fill="#3e3b3a" opacity="0.2"/><path d="M238,650.71H193.84s.06-.71.15-1.72c.15-1.88.4-4.82.56-6.4a5.91,5.91,0,0,1,4.18-5.06c1.16-.41,4.18-1.52,6.91-2.54l.07,0,2.65-1,.41-.15,1.47-.54.33-.13h0l.24-.09,5.11.15h.32l4.8-.14.24.09.34.13,1.6.6.27.1,3.78,1.4h0l.91.33,1.32.49.42.15.8.3,1.7.62.27.09.44.16a5.93,5.93,0,0,1,4.18,5.06C237.56,645,238,650.71,238,650.71Z" transform="translate(-112.74 -533.89)" fill="#727171"/><path d="M228.09,611.06v5.23c-5.82,0-8.09,2.79-10.57,5.1-.41.38-.83.75-1.27,1.09a8.46,8.46,0,0,1-5.5,1.89,4.42,4.42,0,0,0-.51-2.38c-1.14-2.34-3.93-4.58-6.46-4.6v-6.33a8.28,8.28,0,0,1,.72-3.23,12.3,12.3,0,0,1,6.3-6.3,12.66,12.66,0,0,1,5.13-1,12.63,12.63,0,0,1,7.48,2.41,4.78,4.78,0,0,1,.42.34l0,0v0a3,3,0,0,1,.33.28,3.73,3.73,0,0,1,.3.26l.32.32c.14.13.26.26.39.4l.39.45,0,0h0s0,0,0,0a11.88,11.88,0,0,1,.91,1.27c.06.09.11.18.16.27.17.3.33.6.47.9l.11.26a.36.36,0,0,1,0,.09c.09.21.18.42.25.63a4,4,0,0,1,.15.49c0,.18.1.36.14.54a4.71,4.71,0,0,1,.09.52c0,.14,0,.28.06.42S228.09,610.86,228.09,611.06Z" transform="translate(-112.74 -533.89)" fill="#727171"/><rect x="97.5" y="87.5" width="11.39" height="15.78" fill="#727171"/><path d="M228.09,615.48v6.34c0,.15,0,.29,0,.44l0,.38L228,623c0,.08,0,.15,0,.22l-.12.52c0,.15-.09.29-.13.43s-.17.48-.27.73-.1.24-.16.36a8.77,8.77,0,0,1-.46.92c-.08.14-.17.28-.26.42s-.14.23-.22.34a10.62,10.62,0,0,1-1.17,1.47l-.27.29c-.13.14-.27.27-.4.39l-.33.29-.19.16-.31.25c-.16.13-.34.26-.51.38s-.27.19-.41.27l-.11.07a3.47,3.47,0,0,1-.45.26l-.16.09a2.75,2.75,0,0,1-.38.2h0a12.38,12.38,0,0,1-5.38,1.31h-.32a12.53,12.53,0,0,1-5.69-1.32c-4.14-2.07-6.46-6.19-6.46-9.26v-5.23c7.22,0,9-4.33,12.47-6.65a8.35,8.35,0,0,1,4.87-1.43C220.79,611.4,224.68,615.46,228.09,615.48Z" transform="translate(-112.74 -533.89)" fill="#727171"/><path d="M238,650.71H216.25V600.49a13.16,13.16,0,0,1,2.65.33,12.3,12.3,0,0,1,4.51,2.07,4.78,4.78,0,0,1,.42.34l0,0v0a3,3,0,0,1,.33.28,3.73,3.73,0,0,1,.3.26l.32.32a4.89,4.89,0,0,1,.39.4l.39.45,0,.06s0,0,0,0a11.88,11.88,0,0,1,.91,1.27c.06.09.11.18.16.27.17.3.33.6.47.9l.11.26a.36.36,0,0,1,0,.09c.09.21.18.42.25.63a4,4,0,0,1,.15.49c0,.18.1.36.14.54a4.71,4.71,0,0,1,.09.52c0,.14,0,.28.06.42s0,.4,0,.6v10.76c0,.15,0,.29,0,.44l0,.38a9,9,0,0,1-.35,1.54l-.09.26a4.52,4.52,0,0,1-.18.47c0,.12-.1.24-.16.36a3.88,3.88,0,0,1-.22.46c-.07.16-.16.31-.24.46s-.17.28-.26.42-.13.21-.2.32l0,0c-.11.16-.22.33-.34.49s-.32.41-.49.6a4.48,4.48,0,0,1-.36.4l-.25.27c-.13.14-.27.26-.4.39l-.28.25a2.31,2.31,0,0,1-.24.2l-.31.25s0,0-.06,0a2.42,2.42,0,0,1-.36.27.28.28,0,0,1-.09.07c-.14.09-.27.19-.41.27l-.11.07c-.16.1-.33.2-.49.28a.37.37,0,0,1-.12.07.94.94,0,0,1-.24.13l-.14.08V633l.41-.24,1.55.78-.05.27h0l3.7,1.56v.07l.45.16,4.08,1.51.33.12,1,.35a5.93,5.93,0,0,1,4.18,5.06C237.56,645,238,650.71,238,650.71Z" transform="translate(-112.74 -533.89)" fill="#3e3b3a" opacity="0.2"/></svg>