<svg id="bfc47329-4f1e-439a-8532-67839bb31d13" data-name="5" xmlns="http://www.w3.org/2000/svg" width="52.35mm" height="41.11mm" viewBox="0 0 148.39 116.53"><title>online-storage</title><path d="M222.75,537.33v101h-110V547h-.05v-9h.1a2.32,2.32,0,0,1-.1-.7,3.3,3.3,0,0,1,3.44-3.15H219.31A3.3,3.3,0,0,1,222.75,537.33Z" transform="translate(-112.74 -534.18)" fill="#3b3b3c"/><rect x="1.99" y="12.36" width="106.03" height="89.68" fill="#fff"/><rect x="1.99" y="12.36" width="106.03" height="4.1" fill="#0e0e0e" opacity="0.06"/><path d="M139.77,543.15a2.55,2.55,0,1,1,2.61-2.55A2.58,2.58,0,0,1,139.77,543.15Z" transform="translate(-112.74 -534.18)" fill="#8bc66f"/><path d="M130.28,543.15a2.55,2.55,0,1,1,2.61-2.55A2.57,2.57,0,0,1,130.28,543.15Z" transform="translate(-112.74 -534.18)" fill="#f4dc6d"/><path d="M120.79,543.15a2.55,2.55,0,1,1,2.61-2.55A2.57,2.57,0,0,1,120.79,543.15Z" transform="translate(-112.74 -534.18)" fill="#e06277"/><g opacity="0.5"><rect x="29.42" y="73.49" width="13.93" height="10.67" fill="#cde3df"/><rect x="45.56" y="81.94" width="9.31" height="1.47" fill="#cde3df"/><rect x="45.56" y="73.92" width="19.22" height="1.54" fill="#cde3df"/><rect x="45.56" y="77.92" width="19.22" height="1.54" fill="#cde3df"/><rect x="29.42" y="73.49" width="13.93" height="10.67" fill="#acb6a9"/><g opacity="0.5"><rect x="45.56" y="81.94" width="9.31" height="1.47" fill="#acb6a9"/><rect x="45.56" y="73.92" width="19.22" height="1.54" fill="#acb6a9"/><rect x="45.56" y="77.92" width="19.22" height="1.54" fill="#acb6a9"/></g></g><rect x="45.39" y="94.29" width="19.22" height="1.54" fill="#acb6a9"/><rect x="6.83" y="37.93" width="19.66" height="5.03" fill="#acb6a9" opacity="0.5"/><rect x="6.83" y="46.21" width="19.66" height="5.03" fill="#acb6a9" opacity="0.5"/><rect x="6.83" y="54.5" width="19.66" height="5.03" fill="#acb6a9" opacity="0.5"/><rect x="6.83" y="62.79" width="19.66" height="5.03" fill="#acb6a9" opacity="0.5"/><rect x="6.41" y="30.33" width="97.18" height="4.26" fill="#acb6a9"/><rect x="6.41" y="88.87" width="97.18" height="0.9" fill="#acb6a9"/><g opacity="0.5"><rect x="68.59" y="73.35" width="13.93" height="10.67" fill="#cde3df"/><rect x="84.72" y="81.81" width="9.31" height="1.47" fill="#cde3df"/><rect x="84.72" y="73.78" width="19.22" height="1.54" fill="#cde3df"/><rect x="84.72" y="77.78" width="19.22" height="1.54" fill="#cde3df"/><rect x="68.59" y="73.35" width="13.93" height="10.67" fill="#acb6a9"/><g opacity="0.5"><rect x="84.72" y="81.81" width="9.31" height="1.47" fill="#acb6a9"/><rect x="84.72" y="73.78" width="19.22" height="1.54" fill="#acb6a9"/><rect x="84.72" y="77.78" width="19.22" height="1.54" fill="#acb6a9"/></g></g><path d="M206.3,555.93a3.52,3.52,0,0,0-.9-1.59,3.92,3.92,0,0,0-1.67-1l-.21-.06a4.16,4.16,0,0,0-3.7.84l2.88,2.67h0v0h0v0l-2.88-2.67a3.58,3.58,0,0,0-1.1,1.67,3.27,3.27,0,0,0,0,2,3.61,3.61,0,0,0,1.11,1.64h0a4,4,0,0,0,1.6.8l.21,0a4.09,4.09,0,0,0,2-.09h0a4,4,0,0,0,1.64-.94h0a3.52,3.52,0,0,0,.94-1.53A3.3,3.3,0,0,0,206.3,555.93Z" transform="translate(-112.74 -534.18)" fill="#7bcad4"/><path d="M215.23,555.93a3.52,3.52,0,0,0-.9-1.59,3.92,3.92,0,0,0-1.67-1l-.21-.06a4.16,4.16,0,0,0-3.7.84l2.88,2.67h0v0h0v0l-2.88-2.67a3.58,3.58,0,0,0-1.1,1.67,3.27,3.27,0,0,0,0,2,3.61,3.61,0,0,0,1.11,1.64h0a3.9,3.9,0,0,0,1.6.8l.21,0a4,4,0,0,0,2-.09h0a4.07,4.07,0,0,0,1.64-.94h0a3.62,3.62,0,0,0,.94-1.53A3.3,3.3,0,0,0,215.23,555.93Z" transform="translate(-112.74 -534.18)" fill="#4fa0d8"/><rect x="29.36" y="38.01" width="74.24" height="32.99" fill="#b9dfd2"/><path d="M181.1,578.57a5.37,5.37,0,1,1-5.33-4.78A5.08,5.08,0,0,1,181.1,578.57Z" transform="translate(-112.74 -534.18)" fill="#f9f8c9" opacity="0.8"/><g opacity="0.5"><path d="M184.74,605.17H142.17l15.13-16a8.39,8.39,0,0,1,12.3,0l5.75,6.1Z" transform="translate(-112.74 -534.18)" fill="#7cc48e"/></g><g opacity="0.5"><path d="M216.34,598v7.19H166.58l9.43-9.95L188.54,582a8.62,8.62,0,0,1,12.66,0Z" transform="translate(-112.74 -534.18)" fill="#7cc48e"/></g><path d="M237.9,587.63c0-.41-.05-.82-.09-1.23a26.23,26.23,0,0,0-1.21-5.73c-.14-.42-.29-.84-.44-1.25h0a14,14,0,0,0-.72-1.77A27.68,27.68,0,0,0,232,572l-.08-.09-3.33-3.61-.08-.08,0,0a1.17,1.17,0,0,0-1.95.88v.71a1.13,1.13,0,0,0,.37.84l.95.95a27.12,27.12,0,0,1,5.18,7.88c.09.21.17.41.24.63h0c.08.2.16.41.23.62v0a23.62,23.62,0,0,1,.73,2.39c.11.4.2.8.28,1.2a2.17,2.17,0,0,1,0,.25A24.59,24.59,0,0,1,235,588a1.18,1.18,0,0,0,1.17,1.14H238v-.32C237.94,588.42,237.92,588,237.9,587.63Z" transform="translate(-112.74 -534.18)" fill="#ebcda8"/><path d="M261.13,604.32v27.52a17.61,17.61,0,0,1-.42,3.79,14.17,14.17,0,0,1-.51,1.8c-.08.23-.16.45-.25.68s-.13.35-.21.51-.15.36-.24.55-.18.39-.29.58a1,1,0,0,1-.07.15c-.14.24-.25.48-.4.71a7.2,7.2,0,0,1-.42.7c-.13.2-.26.41-.4.6a7.45,7.45,0,0,1-.55.74,2.48,2.48,0,0,1-.35.45q-.28.36-.6.72a15.4,15.4,0,0,1-1.34,1.34c-.45.43-1,.84-1.45,1.23a21.61,21.61,0,0,1-5.07,2.82c-.62.24-1.25.46-1.89.64-.33.1-.64.18-1,.25s-.72.17-1.1.23-.87.15-1.3.21h0c-.44.06-.89.09-1.33.12s-.91.05-1.37.05h-11c-.39,0-.77,0-1.15,0a3,3,0,0,1-.52,0,5.21,5.21,0,0,1-.7-.06l-.51-.06a6.69,6.69,0,0,1-.8-.12c-.13,0-.28,0-.42-.07-.3-.05-.6-.12-.9-.19a8.33,8.33,0,0,1-.86-.22,6.75,6.75,0,0,1-.73-.22,18.51,18.51,0,0,1-2.19-.81c-.06,0-.14,0-.21-.09l-.92-.44-.77-.42-.58-.34,0,0a12.31,12.31,0,0,1-1.36-.9.45.45,0,0,1-.13-.11,4.6,4.6,0,0,1-.45-.32,18.91,18.91,0,0,1-2.37-2.18c-.26-.28-.51-.56-.76-.87s-.56-.71-.83-1.07a19.44,19.44,0,0,1-1.24-2,17.52,17.52,0,0,1-2.1-8.28v-27.1a23.11,23.11,0,0,1,7.64-17c.59-.54,1.21-1.06,1.85-1.55A27.23,27.23,0,0,1,230.7,581c.36-.06.72-.11,1.09-.15.56-.07,1.13-.13,1.7-.16a.2.2,0,0,1,.1,0h.17l1.33,0h.24c.42,0,.85,0,1.27,0a26.84,26.84,0,0,1,5.85.9,26.1,26.1,0,0,1,6,2.41s0,0,0,0a1.68,1.68,0,0,1,.33.16,26.59,26.59,0,0,1,5.89,4.6c.31.33.61.66.9,1a1.5,1.5,0,0,1,.2.24c.3.35.57.71.84,1.07s.32.44.47.67a.6.6,0,0,1,.09.13c.22.32.43.65.63,1a21.17,21.17,0,0,1,1.77,3.61,6.32,6.32,0,0,1,.22.61,7,7,0,0,1,.24.69c0,.06,0,.14.06.21.11.32.2.65.28,1s.16.68.22,1a18.61,18.61,0,0,1,.32,2c0,.2,0,.39.05.58a3.81,3.81,0,0,1,0,.59C261.11,603.51,261.13,603.91,261.13,604.32Z" transform="translate(-112.74 -534.18)" fill="#f9e8d4"/><path d="M236.6,580.67c-.42,0-.85,0-1.27,0h-.24l-1.33,0h-.28c-.08-.2-.16-.42-.22-.62h0l-.26-.63h0a5.49,5.49,0,0,1,1.58-.37,1.91,1.91,0,0,1,1.56.35h0C236.31,579.83,236.46,580.25,236.6,580.67Z" transform="translate(-112.74 -534.18)" fill="#cebca7"/><path d="M261.13,604.32v27.52a17.61,17.61,0,0,1-.42,3.79,14.17,14.17,0,0,1-.51,1.8c-.08.23-.16.45-.25.68s-.13.35-.21.51-.15.36-.24.55-.18.39-.29.58a1,1,0,0,1-.07.15c-.14.24-.25.48-.4.71a7.2,7.2,0,0,1-.42.7c-.13.2-.26.41-.4.6a7.45,7.45,0,0,1-.55.74,2.48,2.48,0,0,1-.35.45q-.28.36-.6.72a15.4,15.4,0,0,1-1.34,1.34c-.45.43-1,.84-1.45,1.23a21.61,21.61,0,0,1-5.07,2.82c-.62.24-1.25.46-1.89.64-.33.1-.64.18-1,.25s-.72.17-1.1.23-.87.15-1.3.21h0c-.44.06-.89.09-1.33.12s-.91.05-1.37.05h-11c-.39,0-.77,0-1.15,0a3,3,0,0,1-.52,0,5.21,5.21,0,0,1-.7-.06l-.51-.06a6.69,6.69,0,0,1-.8-.12c-.13,0-.28,0-.42-.07-.3-.05-.6-.12-.9-.19a8.33,8.33,0,0,1-.86-.22,6.75,6.75,0,0,1-.73-.22,18.51,18.51,0,0,1-2.19-.81c-.06,0-.14,0-.21-.09l-.92-.44-.77-.42-.58-.34,0,0a12.31,12.31,0,0,1-1.36-.9.45.45,0,0,1-.13-.11,4.6,4.6,0,0,1-.45-.32,18.91,18.91,0,0,1-2.37-2.18c-.26-.28-.51-.56-.76-.87s-.56-.71-.83-1.07a19.44,19.44,0,0,1-1.24-2,17.52,17.52,0,0,1-2.1-8.28v-27.1a23.11,23.11,0,0,1,7.64-17c.59-.54,1.21-1.06,1.85-1.55A27.23,27.23,0,0,1,230.7,581c.36-.06.72-.11,1.09-.15.56-.07,1.13-.13,1.7-.16a.2.2,0,0,1,.1,0h.17l1.33,0h.24c.42,0,.85,0,1.27,0a26.84,26.84,0,0,1,5.85.9,26.1,26.1,0,0,1,6,2.41s0,0,0,0a1.68,1.68,0,0,1,.33.16,26.59,26.59,0,0,1,5.89,4.6c.31.33.61.66.9,1a1.5,1.5,0,0,1,.2.24c.3.35.57.71.84,1.07s.32.44.47.67a.6.6,0,0,1,.09.13c.22.32.43.65.63,1a21.17,21.17,0,0,1,1.77,3.61,6.32,6.32,0,0,1,.22.61,7,7,0,0,1,.24.69c0,.06,0,.14.06.21.11.32.2.65.28,1s.16.68.22,1a18.61,18.61,0,0,1,.32,2c0,.2,0,.39.05.58a3.81,3.81,0,0,1,0,.59C261.11,603.51,261.13,603.91,261.13,604.32Z" transform="translate(-112.74 -534.18)" fill="#f9e8d4"/><path d="M235.1,612.88h0a2.61,2.61,0,0,1-2.71-2.49v-9.17a2.61,2.61,0,0,1,2.71-2.49h0a2.61,2.61,0,0,1,2.71,2.49v9.17A2.61,2.61,0,0,1,235.1,612.88Z" transform="translate(-112.74 -534.18)" fill="#585b62"/><path d="M261.13,604.31v27.52c0,10.38-9.26,18.87-20.56,18.87h-11a21.06,21.06,0,0,1-17.2-8.59C234.08,631.52,250,612,254.76,588.78A22.48,22.48,0,0,1,261.13,604.31Z" transform="translate(-112.74 -534.18)" fill="#f1d9bc"/><rect x="121.76" y="48.09" width="1.19" height="15.64" fill="#dca27c"/><path d="M175.53,603.93l-3.36-3.36.91-.91a2.22,2.22,0,0,0-.83-3.67l-10.48-3.73a2.35,2.35,0,0,0-.74-.13,2.27,2.27,0,0,0-1.58.65,2.24,2.24,0,0,0-.52,2.32l3.73,10.48a2.25,2.25,0,0,0,1.61,1.43,2.72,2.72,0,0,0,.49,0,2.23,2.23,0,0,0,1.57-.65l.91-.91h0l3.36,3.36a2.28,2.28,0,0,0,1.58.65,2.25,2.25,0,0,0,1.57-.65l1.78-1.78A2.23,2.23,0,0,0,175.53,603.93Z" transform="translate(-112.74 -534.18)" fill="#fff"/><path d="M173.18,610.88a2.27,2.27,0,0,1-1.57-.65l-4.29-4.3-1.38,1.39a2.21,2.21,0,0,1-1.57.65,2,2,0,0,1-.49-.06,2.17,2.17,0,0,1-1.6-1.42L157.84,594a2.22,2.22,0,0,1,.53-2.31,2.17,2.17,0,0,1,1.56-.65,2.36,2.36,0,0,1,.75.12l12.45,4.44a2.22,2.22,0,0,1,.83,3.66l-1.39,1.38,4.3,4.29a2.23,2.23,0,0,1,0,3.14l-2.12,2.12A2.25,2.25,0,0,1,173.18,610.88Zm.38-2,1.95-2a.54.54,0,0,0,0-.76L170,600.68l2.53-2.52a.55.55,0,0,0-.2-.89L168.81,596l-8.5-3a.54.54,0,0,0-.69.68l1.64,4.62,2.65,7.44a.54.54,0,0,0,.88.2l.76-.75,1.77-1.78,5.48,5.48A.54.54,0,0,0,173.56,608.87Z" transform="translate(-112.74 -534.18)" fill="#b2b2b2"/></svg>