<svg id="ec508392-a33d-4a71-8499-113f254384b3" data-name="1" xmlns="http://www.w3.org/2000/svg" width="22.54mm" height="22.58mm" viewBox="0 0 63.89 64"><title>search-small</title><path d="M713,238.84l-18-18.09a25.93,25.93,0,0,0,2.31-3.51l.06-.12c.3-.55.59-1.12.84-1.7.12-.25.21-.52.32-.77s.31-.76.45-1.14.17-.56.25-.84.25-.77.36-1.17c0-.17.07-.34.11-.51a25,25,0,0,0-1.18-15.32.49.49,0,0,0,0-.11c-.14-.33-.28-.66-.44-1,0,0,0-.09,0-.13-.16-.34-.33-.67-.51-1l0-.09a25.14,25.14,0,0,0-28.14-12.64l-.35.08c-.42.1-.83.24-1.24.37s-.52.14-.77.23c-.41.15-.82.32-1.22.48-.23.1-.47.18-.69.28a25.07,25.07,0,0,0-11.93,11l0,0c-.32.58-.62,1.18-.89,1.79-.1.22-.18.46-.27.69-.17.4-.34.81-.49,1.23-.09.24-.15.5-.23.75-.13.42-.27.83-.38,1.26,0,.14-.06.29-.09.43a25.13,25.13,0,0,0,24.44,31.06,25.37,25.37,0,0,0,6.08-.74l.19,0c.47-.13.93-.27,1.39-.42l.62-.19c.42-.15.83-.32,1.24-.49l.69-.27c.48-.22.95-.46,1.41-.7l.44-.21a25.24,25.24,0,0,0,3.48-2.3l18,18.1a3,3,0,0,0,2.13.89,3.08,3.08,0,0,0,2.14-.88A3,3,0,0,0,713,238.84Zm-18.94-33.63a18.65,18.65,0,0,1-3.59,11,18.26,18.26,0,0,1-4.28,4.27,18.66,18.66,0,0,1-11,3.56,18.9,18.9,0,0,1-18.86-18.91,18.68,18.68,0,0,1,3.59-11,18.95,18.95,0,0,1,15.32-7.82A18.9,18.9,0,0,1,694.07,205.21Z" transform="translate(-650 -180)" fill="#fff"/></svg>