<svg id="ae5fd317-d376-4c73-a099-52ac1da0453d" data-name="5" xmlns="http://www.w3.org/2000/svg" width="52.35mm" height="41.11mm" viewBox="0 0 148.39 116.53"><title>security</title><polygon points="84.9 101.56 43.1 101.56 44.57 70.18 83.43 70.18 84.9 101.56" fill="#d1d1d1"/><polygon points="84.36 91.31 43.64 91.31 44.57 71.48 83.43 71.48 84.36 91.31" fill="#b8b8b8"/><path d="M148.9,633.12h55.68a6.4,6.4,0,0,1,6.39,6.39H142.51A6.41,6.41,0,0,1,148.9,633.12Z" transform="translate(-112.74 -534.18)" fill="#dedede"/><path d="M240.74,580.76V620.1a2.84,2.84,0,0,1-2.83,2.85H115.57a2.84,2.84,0,0,1-2.83-2.85V580.76a2.84,2.84,0,0,1,2.83-2.84H237.91A2.84,2.84,0,0,1,240.74,580.76Z" transform="translate(-112.74 -534.18)" fill="#dedede"/><path d="M240.74,537.88v71.7h-128v-71.7h.1a4.65,4.65,0,0,1,4.55-3.7H236.1a4.65,4.65,0,0,1,4.55,3.7Z" transform="translate(-112.74 -534.18)" fill="#3b3b3c"/><rect x="7.73" y="7.34" width="112.54" height="60.72" fill="#fff"/><rect x="14.61" y="20.92" width="30.51" height="14.9" fill="#acb6a9"/><rect x="21.6" y="12.81" width="17.43" height="1.42" fill="#acb6a9"/><rect x="14.59" y="38.22" width="17.43" height="2.83" fill="#acb6a9"/><rect x="14.59" y="58.63" width="17.43" height="2.83" fill="#acb6a9"/><rect x="14.59" y="42.8" width="30.72" height="2.83" fill="#acb6a9"/><rect x="14.59" y="48.06" width="30.72" height="2.83" fill="#acb6a9"/><rect x="14.59" y="53.33" width="30.72" height="2.83" fill="#acb6a9"/><path d="M130.94,546.2h0a2.11,2.11,0,0,1,0,3h0a2.11,2.11,0,0,1-3,0h0a2.11,2.11,0,0,1,0-3h0A2.11,2.11,0,0,1,130.94,546.2Z" transform="translate(-112.74 -534.18)" fill="#acb6a9"/><rect x="219.51" y="546.69" width="2" height="2" transform="translate(-123.59 556.72) rotate(-135)" fill="#acb6a9"/><rect x="224.36" y="546.69" width="2" height="2" transform="translate(-115.32 560.15) rotate(-135)" fill="#acb6a9"/><rect x="215.2" y="546.69" width="2" height="2" transform="translate(-130.94 553.67) rotate(-135)" fill="#acb6a9"/><polyline points="66.11 35.58 66.11 47.66 76.84 54.01 87.56 47.66 87.56 35.58" fill="#acb6a9"/><polygon points="94.3 39.96 88.34 34.89 87.33 34.03 92.67 29.62 94.29 28.28 94.29 28.28 94.3 28.27 83.38 21.35 76.84 27.24 70.3 21.35 62.01 26.61 59.38 28.27 59.39 28.27 59.38 28.27 65.31 33.18 66.34 34.03 60.96 38.61 59.38 39.95 59.38 39.95 59.37 39.96 66.11 44.2 70.3 46.65 76.84 40.79 83.38 46.65 85.42 45.4 87.56 44.2 92.74 40.94 94.29 39.96 94.29 39.96 94.3 39.96" fill="#acb6a9"/><path d="M196.06,581.5l-6.48-5.8-6.47,5.79-4.53-2.64-6.88-4.33-.54-.3,0,0h0l.59-.48,6.47-5.49-7.05-5.83,11.91-7.54,6.48,5.84,6.48-5.84,11.39,7.22.55.3-7.08,5.84,7.05,6-7.37,4.65-2.17,1.21Zm-23-7.43,6.09,3.84,3.83,2.24,6.61-5.92,6.6,5.92,1.7-1L200,577.9l6.09-3.83-6.9-5.87,6.88-5.69-9.93-6.3-6.6,5.94-6.6-5.94-9.93,6.3,6.88,5.69L173.08,574h0Z" transform="translate(-112.74 -534.18)" fill="#fff"/><polygon points="76.84 28.56 67.83 34 76.84 39.44 85.85 34 76.84 28.56" fill="#fff"/><path d="M189.58,574.25l-10.07-6.07,10.07-6.08,10.07,6.08Zm-8-6.07,8,4.8,8-4.8-8-4.81Z" transform="translate(-112.74 -534.18)" fill="#fff"/><path d="M261.13,592.13c-25-4.47-35.78-19.67-35.78-19.67s-10.73,15.2-35.77,19.67c0,9.84-.89,42.48,35.77,58.58C262,634.61,261.13,602,261.13,592.13Z" transform="translate(-112.74 -534.18)" fill="#838384"/><path d="M225.35,643.81c-26-12.66-29.1-34.62-29.46-46.63a66.62,66.62,0,0,0,29.46-15.52,66.73,66.73,0,0,0,29.47,15.52C254.46,609.19,251.35,631.15,225.35,643.81Z" transform="translate(-112.74 -534.18)" fill="#f1f2f1"/><path d="M252.29,598.42c-.28,10.84-2.93,31.13-26.94,42.73a53.08,53.08,0,0,1-11.24-7.22,42.53,42.53,0,0,1-9.52-11.35c-5.1-8.89-6-18-6.17-24.16a59.5,59.5,0,0,0,26.93-14.2,55.44,55.44,0,0,0,10.11,7.49,62.66,62.66,0,0,0,14.71,6.15C250.86,598.06,251.57,598.24,252.29,598.42Z" transform="translate(-112.74 -534.18)" fill="#f0c57b"/><path d="M225.35,584.22a59.5,59.5,0,0,1-26.93,14.2,58.33,58.33,0,0,0,1.8,13.38h25.13Z" transform="translate(-112.74 -534.18)" fill="#727171"/><path d="M250.17,597.86a62.66,62.66,0,0,1-14.71-6.15,55.44,55.44,0,0,1-10.11-7.49V611.8H250.5a58.74,58.74,0,0,0,1.79-13.38C251.57,598.24,250.86,598.06,250.17,597.86Z" transform="translate(-112.74 -534.18)" fill="#f4e228" opacity="0.26"/><path d="M200.22,611.8a44.09,44.09,0,0,0,4.37,10.78,42.53,42.53,0,0,0,9.52,11.35,53.08,53.08,0,0,0,11.24,7.22V611.8Z" transform="translate(-112.74 -534.18)" fill="#f4e228" opacity="0.26"/><path d="M225.35,641.15c16-7.72,22.49-19.28,25.15-29.35H225.35Z" transform="translate(-112.74 -534.18)" fill="#727171"/><path d="M225.35,572.46s10.74,15.2,35.78,19.67c0,9.84.89,42.48-35.78,58.58Z" transform="translate(-112.74 -534.18)" fill="#241916" opacity="0.12"/></svg>