<svg id="b0d5ef59-98cd-477a-8004-bbd989a5077d" data-name="5" xmlns="http://www.w3.org/2000/svg" width="52.35mm" height="41.21mm" viewBox="0 0 148.39 116.81"><title>support</title><path d="M209,643.33H112.74s.06-.6.13-1.61c.31-3.52,1-11.93,1.4-16.06.51-5.3,4-9.28,9.12-11,2.51-.88,9.07-3.3,15-5.5h.06c2.13-.79,4.18-1.54,5.92-2.2l.91-.34,1-.38,2.14-.8.73-.28h0l.52-.2,9.7.28,1.45.05L172,604.9l.52.2h0l.73.28,1.57.58c.56.22,1.21.44,1.89.71.21.07.41.16.63.23l8.22,3h0l2.2.82,1.72.63c3.8,1.4,7.19,2.63,8.85,3.21,5.06,1.77,8.61,5.75,9.11,11S209,643.33,209,643.33Z" transform="translate(-112.74 -533.89)" fill="#935c45"/><polygon points="47.8 78.04 47.8 109.24 32.52 109.24 32.52 96.28 19.37 98.82 24.04 75.9 25.65 75.22 25.71 75.2 31.59 72.72 32.09 72.51 32.54 72.67 35.72 73.79 46.69 77.64 47.1 77.78 47.48 77.92 47.8 78.04" fill="#9d8478"/><polygon points="64.77 72.51 72.83 75.91 77.5 98.82 64.35 96.28 64.35 109.25 49.07 109.25 49.07 78.03 64.77 72.51" fill="#9d8478"/><rect x="42.48" y="86.94" width="11.32" height="22.3" fill="#d45c66"/><path d="M181.91,602.17c-.95.56-1.89,1.09-2.83,1.6-.46.25-.92.5-1.39.74s-.91.48-1.36.72l-1.47.73c-.53.26-1.05.52-1.57.75a107.5,107.5,0,0,1-11.21,4.52l-1.2.38v.32h0l-.49-.14-.14,0-.38.11v-.32l-.41-.13a104.82,104.82,0,0,1-11-4.29c-.7-.31-1.41-.64-2.14-1l-1.42-.69c-2-1-4-2.09-6.09-3.32-11.45-6.8-16.12-15.71-9.34-39.89,6.47-23,20.24-27.94,30-28.36h.41v0h1a27.23,27.23,0,0,1,13.19,3.3,26.76,26.76,0,0,1,9.3,8.37c.7.92,1.38,1.9,2,3a53.56,53.56,0,0,1,5.85,13.76C198,586.46,193.37,595.37,181.91,602.17Z" transform="translate(-112.74 -533.89)" fill="#bf9862"/><rect x="35.72" y="45.57" width="24.82" height="34.37" fill="#f0deb4"/><path d="M169.35,560.86c-.53,4.73,5.82,11.35,11.39,11.4v10.35c0,7-7.36,17.29-19.86,17.29S141,589.6,141,582.61v-8.54C157.16,574.07,156.63,560.86,169.35,560.86Z" transform="translate(-112.74 -533.89)" fill="#f8e8bc"/><rect x="42.48" y="78.45" width="11.32" height="7.92" fill="#d45c66"/><rect x="42.48" y="85.53" width="11.32" height="2.55" fill="#b44551"/><polygon points="48.13 78.04 47.8 78.36 47.7 78.46 46.69 79.44 46.16 79.94 42.48 83.51 34.84 90.9 31.63 73 31.59 72.72 31.44 71.95 32.16 71.6 34.84 70.25 35.72 70.77 36.45 71.21 36.47 71.21 46.69 77.19 48.11 78.02 48.13 78.04" fill="#f1f2f1"/><polygon points="48.13 78.03 61.43 70.25 64.83 71.95 61.43 90.9 48.13 78.03" fill="#f1f2f1"/><path d="M209,643.33H159.43V533.92h.41v0h1a27.23,27.23,0,0,1,13.19,3.3,26.76,26.76,0,0,1,9.3,8.37c.7.92,1.38,1.9,2,3a53.56,53.56,0,0,1,5.85,13.76c6.78,24.18,2.11,33.09-9.35,39.89-.95.56-1.89,1.09-2.83,1.6-.46.25-.92.5-1.39.74s-.91.48-1.36.72l1.24.61-.1.58,0,0,8.07,3.4,0,.14h0l2.2.82,1.72.63c3.8,1.4,7.19,2.63,8.85,3.21,5.06,1.77,8.61,5.75,9.11,11S209,643.33,209,643.33Z" transform="translate(-112.74 -533.89)" fill="#3e3b3a" opacity="0.1"/><path d="M162.94,594.79v-1.5c7.55,0,13.63-1.66,17.58-4.79,2.89-2.28,4.61-5.4,4.61-8.33,0-1.93-.79-3.34-1.88-3.34v-1.5c2,0,3.38,2,3.38,4.84,0,3.39-1.93,6.94-5.17,9.51C177.24,593,170.83,594.79,162.94,594.79Z" transform="translate(-112.74 -533.89)" fill="#f1f2f1"/><rect x="41.75" y="57.91" width="12.76" height="4.46" rx="2.23" fill="#727171"/><rect x="177.2" y="573.95" width="9.78" height="4.26" rx="2.13" transform="translate(645.43 -139.9) rotate(90)" fill="#727171"/><circle cx="117.34" cy="85.76" r="31.05" fill="#e67386"/><path d="M230.08,588.61v62.1a31,31,0,0,0,0-62.1Z" transform="translate(-112.74 -533.89)" fill="#db6075"/><path d="M239.12,629l-.2.33a50,50,0,0,1-3.83,5.62,16.43,16.43,0,0,1-5.55,5,7.45,7.45,0,0,1-1.66.57,2.59,2.59,0,0,1-2.92-1c-.63-1-.57-3.42.21-7.46,1-5,2.14-8.88,3.27-14h-.37a11.07,11.07,0,0,0-2.85,2.64,33.29,33.29,0,0,0-2.57,3.39L221,622.49c1.38-1.9,2.51-3.39,3.39-4.43a18.17,18.17,0,0,1,5.52-4.77,6.49,6.49,0,0,1,1.5-.51,2.5,2.5,0,0,1,2.79,1c.4.63.68,2.53-1.57,11.72-2.18,8.92-2.11,9.17-2,9.42.06.09.11.1.25.08a1.82,1.82,0,0,0,.38-.14,9.46,9.46,0,0,0,3.05-2.92c.57-.71,1.37-1.87,2.38-3.44l.26-.39Z" transform="translate(-112.74 -533.89)" fill="#fff"/><circle cx="234.69" cy="603.03" r="4.34" transform="translate(-518.64 160.65) rotate(-76.86)" fill="#fff"/><g opacity="0.08"><path d="M236.75,628.49c-1,1.57-1.81,2.73-2.38,3.44a9.46,9.46,0,0,1-3.05,2.92,1.31,1.31,0,0,1-.38.13c-.14,0-.19,0-.25-.07-.13-.25-.2-.5,2-9.42,2.25-9.19,2-11.09,1.57-11.72a2.5,2.5,0,0,0-2.79-1,6.3,6.3,0,0,0-1.37.46v26.45a17.78,17.78,0,0,0,5-4.71,50,50,0,0,0,3.83-5.62l.2-.33L237,628.1Z" transform="translate(-112.74 -533.89)"/><circle cx="234.69" cy="603.03" r="4.34" transform="translate(-518.64 160.65) rotate(-76.86)"/></g></svg>