<svg id="bcf08aaf-e811-4ca4-ac16-281be93aadf1" data-name="1" xmlns="http://www.w3.org/2000/svg" width="38.6mm" height="35.28mm" viewBox="0 0 109.42 100"><title>user</title><path d="M200.16,447.76a92.36,92.36,0,0,1-24.41,0c-27.9,1.85-42.5,10.16-42.5,20.24H242.67C242.67,457.92,228.07,449.61,200.16,447.76Z" transform="translate(-133.25 -368)" fill="#4b4b4b"/><path d="M188,442.5c14.93,0,27-14.61,27-32.62v-9.26c0-18-12.11-32.62-27-32.62s-27,14.61-27,32.62v9.26C160.92,427.89,173,442.5,188,442.5Z" transform="translate(-133.25 -368)" fill="#4b4b4b"/><path d="M188.28,429.36h-.64c-5,0-12.37.38-11.38,2.52,4.11,8.8-5.67,20.12-5.67,20.12h34.73s-9.77-11.32-5.67-20.12C200.65,429.74,193.25,429.38,188.28,429.36Z" transform="translate(-133.25 -368)" fill="#4b4b4b"/></svg>